<svg width="10" height="3" viewBox="0 0 10 3" fill="none" xmlns="http://www.w3.org/2000/svg">
<path d="M0 1.10352C0 1.35216 0.098772 1.59061 0.274587 1.76643C0.450403 1.94224 0.68886 2.04102 0.9375 2.04102C1.18614 2.04102 1.4246 1.94224 1.60041 1.76643C1.77623 1.59061 1.875 1.35216 1.875 1.10352C1.875 0.854875 1.77623 0.616418 1.60041 0.440603C1.4246 0.264788 1.18614 0.166016 0.9375 0.166016C0.68886 0.166016 0.450403 0.264788 0.274587 0.440603C0.098772 0.616418 0 0.854875 0 1.10352H0Z" fill="#262626"/>
<path d="M4.16675 1.10352C4.16675 1.35216 4.26552 1.59061 4.44134 1.76643C4.61715 1.94224 4.85561 2.04102 5.10425 2.04102C5.35289 2.04102 5.59135 1.94224 5.76717 1.76643C5.94298 1.59061 6.04176 1.35216 6.04176 1.10352C6.04176 0.854875 5.94298 0.616418 5.76717 0.440603C5.59135 0.264788 5.35289 0.166016 5.10425 0.166016C4.85561 0.166016 4.61715 0.264788 4.44134 0.440603C4.26552 0.616418 4.16675 0.854875 4.16675 1.10352Z" fill="#262626"/>
<path d="M8.125 1.10352C8.125 1.35216 8.22377 1.59061 8.39959 1.76643C8.5754 1.94224 8.81386 2.04102 9.0625 2.04102C9.31114 2.04102 9.5496 1.94224 9.72541 1.76643C9.90123 1.59061 10 1.35216 10 1.10352C10 0.854875 9.90123 0.616418 9.72541 0.440603C9.5496 0.264788 9.31114 0.166016 9.0625 0.166016C8.81386 0.166016 8.5754 0.264788 8.39959 0.440603C8.22377 0.616418 8.125 0.854875 8.125 1.10352Z" fill="#262626"/>
</svg>
