<svg width="12" height="13" viewBox="0 0 12 13" fill="none" xmlns="http://www.w3.org/2000/svg">
<path d="M10.4782 1.82939C10.3011 1.89498 10.1765 1.93433 10.0585 1.98025C9.69772 2.11799 9.35009 2.2754 8.98279 2.40002C8.87784 2.43282 8.72698 2.4197 8.6286 2.36723C8.3728 2.24261 8.12355 2.09831 7.88743 1.93433C7.80872 1.88186 7.74313 1.7638 7.72345 1.66541C7.64475 1.23252 7.58571 0.793064 7.53324 0.353611C7.50045 0.104368 7.38239 -0.00713539 7.12658 -0.000576019C6.3723 0.0059824 5.61801 0.0059824 4.86372 -0.000576019C4.61448 -0.000576019 4.4833 0.0978098 4.45051 0.347052C4.39147 0.786506 4.31933 1.2194 4.26685 1.65885C4.24718 1.80971 4.1947 1.90154 4.05041 1.97369C3.80772 2.09175 3.59127 2.25572 3.34859 2.37379C3.26332 2.4197 3.13214 2.43938 3.04032 2.40658C2.61398 2.25572 2.20076 2.08519 1.78099 1.92122C1.47927 1.80315 1.39401 1.82939 1.22347 2.11799C0.849607 2.75421 0.482302 3.39043 0.114998 4.02666C-0.0555367 4.32181 -0.0489777 4.39396 0.219942 4.60385C0.574129 4.88589 0.934874 5.15481 1.2825 5.44341C1.34809 5.49588 1.39401 5.61394 1.39401 5.69921C1.40712 5.94189 1.35465 6.19769 1.39401 6.43382C1.43992 6.68962 1.33497 6.8208 1.15132 6.95854C0.823371 7.19466 0.521657 7.45702 0.200265 7.69315C0.0100534 7.83745 -0.0358597 7.9883 0.0887616 8.19819C0.488861 8.87377 0.882402 9.55591 1.27594 10.238C1.38745 10.4283 1.53174 10.4676 1.73507 10.3889C2.16797 10.2184 2.60086 10.0413 3.04032 9.88386C3.13214 9.85106 3.27644 9.87074 3.36827 9.91665C3.61751 10.0413 3.84052 10.2052 4.08976 10.3299C4.22094 10.3955 4.26685 10.4742 4.27997 10.6053C4.339 11.0514 4.41115 11.4974 4.47018 11.9434C4.48986 12.1992 4.6276 12.291 4.87028 12.291C5.62457 12.2845 6.37886 12.2845 7.13314 12.291C7.36927 12.291 7.50045 12.1926 7.52668 11.9565C7.58572 11.5171 7.65786 11.0842 7.71034 10.6447C7.73001 10.4807 7.78904 10.3823 7.94646 10.3102C8.17603 10.2052 8.39247 10.0741 8.60236 9.92977C8.7401 9.83139 8.85816 9.83139 9.00902 9.89698C9.41568 10.0675 9.8289 10.2184 10.2421 10.3889C10.4717 10.4807 10.6291 10.4348 10.7537 10.2118C11.1276 9.54935 11.5211 8.89345 11.9015 8.23755C12.0524 7.97518 12.0327 7.88992 11.79 7.69971C11.4424 7.43079 11.0948 7.15531 10.7406 6.88639C10.6225 6.79456 10.5897 6.7093 10.6029 6.55844C10.6291 6.28296 10.5963 6.00092 10.6094 5.72544C10.616 5.62706 10.6619 5.509 10.734 5.44996C11.0817 5.16137 11.4424 4.89245 11.7966 4.61697C12.0393 4.42676 12.0524 4.34149 11.9015 4.07913C11.5146 3.41011 11.1276 2.74765 10.734 2.08519C10.6685 1.96713 10.5569 1.90154 10.4782 1.82939ZM5.97876 3.98075C7.16594 3.97419 8.14979 4.93836 8.15635 6.11242C8.16291 7.31928 7.20529 8.29658 6.01155 8.30314C4.81781 8.30969 3.83396 7.33896 3.83396 6.14522C3.8274 4.9646 4.79813 3.9873 5.97876 3.98075Z" fill="#262626"/>
</svg>
