<svg width="12" height="10" viewBox="0 0 12 10" fill="none" xmlns="http://www.w3.org/2000/svg">
<path d="M12 6.00094V7.28677C12 7.34477 11.9788 7.39502 11.9363 7.43752C11.8938 7.48002 11.8435 7.50127 11.7855 7.50127H2.57167V8.7871C2.57167 8.8451 2.55042 8.89535 2.50792 8.93785C2.46542 8.98035 2.41517 9.0016 2.35718 9.0016C2.30368 9.0016 2.25005 8.97922 2.19631 8.93447L0.0603731 6.79179C0.0201244 6.75154 0 6.70242 0 6.64442C0 6.58192 0.0201244 6.53055 0.0603731 6.4903L2.20306 4.34762C2.2433 4.30737 2.29468 4.28724 2.35718 4.28724C2.41517 4.28724 2.46542 4.30849 2.50792 4.35099C2.55042 4.39349 2.57167 4.44374 2.57167 4.50174V5.78757H11.7855C11.8435 5.78757 11.8938 5.80882 11.9363 5.85132C11.9788 5.89382 12 5.94407 12 6.00206V6.00094ZM12 2.3583C12 2.4208 11.9799 2.47217 11.9396 2.51242L9.79694 4.65511C9.75669 4.69535 9.70532 4.71548 9.64282 4.71548C9.58483 4.71548 9.53458 4.69423 9.49208 4.65173C9.44958 4.60923 9.42833 4.55898 9.42833 4.50099V3.21515H0.214493C0.156495 3.21515 0.106247 3.1939 0.063748 3.1514C0.0212493 3.1089 0 3.05866 0 3.00066V1.71482C0 1.65682 0.0212493 1.60658 0.063748 1.56408C0.106247 1.52158 0.156495 1.50033 0.214493 1.50033H9.42833V0.214493C9.42833 0.151995 9.44845 0.100622 9.4887 0.0603732C9.52895 0.0201245 9.58033 0 9.64282 0C9.69632 0 9.74994 0.0223743 9.80369 0.0671229L11.9396 2.20306C11.9799 2.24331 12 2.29468 12 2.35718V2.3583Z" fill="#50C878"/>
</svg>
